<?xml version="1.0" encoding="utf-8"?>
<!-- Generator: Adobe Illustrator 15.0.2, SVG Export Plug-In . SVG Version: 6.00 Build 0)  -->
<!DOCTYPE svg PUBLIC "-//W3C//DTD SVG 1.1//EN" "http://www.w3.org/Graphics/SVG/1.1/DTD/svg11.dtd">
<svg version="1.1" xmlns="http://www.w3.org/2000/svg" xmlns:xlink="http://www.w3.org/1999/xlink" x="0px" y="0px" width="354px"
	 height="176px" viewBox="0 0 354 176" enable-background="new 0 0 354 176" xml:space="preserve">
<g id="Masterseitenebene" display="none">
</g>
<g id="Statusbar" display="none">
	<g display="inline">
		<polyline fill="none" stroke="#000000" stroke-miterlimit="10" points="-141,-442 499,-442 499,-402 -141,-402 -141,-442 		"/>
		<line fill="none" stroke="#000000" stroke-miterlimit="10" x1="-141" y1="-442" x2="499" y2="-402"/>
		<line fill="none" stroke="#000000" stroke-miterlimit="10" x1="499" y1="-442" x2="-141" y2="-402"/>
	</g>
	<rect x="-141" y="-442" display="inline" fill-rule="evenodd" clip-rule="evenodd" width="225" height="40"/>
	<rect x="130" y="-442" display="inline" fill-rule="evenodd" clip-rule="evenodd" width="90" height="40"/>
	<circle display="inline" fill-rule="evenodd" clip-rule="evenodd" fill="#FFFFFF" cx="-122.5" cy="-421.5" r="5.5"/>
	<circle display="inline" fill-rule="evenodd" clip-rule="evenodd" fill="#FFFFFF" cx="-94.5" cy="-421.5" r="5.5"/>
	<circle display="inline" fill-rule="evenodd" clip-rule="evenodd" fill="#FFFFFF" cx="-108.5" cy="-421.5" r="5.5"/>
	<circle display="inline" fill-rule="evenodd" clip-rule="evenodd" fill="#FFFFFF" cx="-80.5" cy="-421.5" r="5.5"/>
	<circle display="inline" fill-rule="evenodd" clip-rule="evenodd" fill="#FFFFFF" cx="-66.5" cy="-421.5" r="5.5"/>
	<g display="inline">
		<text transform="matrix(1 0 0 1 -57 -436)" fill="#FFFFFF" font-family="'MyriadPro-Regular'" font-size="24">PrettyGood</text>
	</g>
	<g display="inline">
		<text transform="matrix(1 0 0 1 147 -436)" fill="#FFFFFF" font-family="'MyriadPro-Regular'" font-size="24">16:20</text>
	</g>
</g>
<g id="Content">
	<g>
		<path fill-rule="evenodd" clip-rule="evenodd" fill="#0F1C21" d="M237.36,61.92V20.98c0.75,0.23,1.51,0.46,2.22,0.7
			c25.72,9.101,49.66,22.8,70.61,40.24H237.36z M111.42,88.69c-13.07,5.45-17.2,9.38-21.52,16.12c-3.66,5.68-6.51,32.14-7.3,40.11
			c-0.24,2.39,1.5,4.52,3.89,4.76c0.15,0.01,0.29,0.02,0.44,0.02c2.21,0,4.1-1.68,4.32-3.92c1.51-15.21,4.22-33.4,5.97-36.271
			c3.05-4.76,5.37-7.7,17.67-12.84l15.45-7.04c1.53-0.7,2.53-2.22,2.54-3.91l0.13-12.01c0.01-1.27-0.64-2.58-1.59-3.42
			c-0.04-0.03-3.43-3.09-4.58-12.09c-0.17-1.26-0.87-2.39-1.93-3.09c-0.79-0.521-1.74-0.76-2.65-0.71
			c-0.65-0.66-1.52-2.27-1.57-3.07c-0.1-1.47,0.14-3.57,0.49-4.72c0.78-0.16,1.51-0.53,2.11-1.08c1.03-0.96,1.53-2.36,1.35-3.76
			c-0.31-2.33-1.25-9.44-1.01-12.16c0.76-7.82,8.71-15.9,20.69-15.9c11.99,0,19.94,8.08,20.69,15.86c0.24,2.76-0.69,9.87-1,12.2
			c-0.19,1.4,0.32,2.8,1.35,3.76c0.59,0.55,1.32,0.92,2.1,1.08c0.35,1.16,0.59,3.26,0.5,4.74c-0.05,0.78-0.92,2.39-1.58,3.05
			c-0.91-0.04-1.85,0.19-2.64,0.71c-1.06,0.7-1.77,1.83-1.93,3.09c-1.14,8.92-4.49,12.01-4.47,12.01c-1.09,0.83-1.72,2.13-1.7,3.5
			l0.12,12.01c0.02,1.69,1.01,3.21,2.55,3.91l15.57,7.09c12.18,5.09,14.5,8.03,17.55,12.79c1.75,2.87,4.46,21.06,5.97,36.271
			c0.22,2.22,2.09,3.92,4.32,3.92h108.55c23.01,0,41.73-18.74,41.73-41.79c0-10.3-3.67-20.11-10.32-27.6
			c-5.31-5.98-10.92-11.67-16.78-17.07l-0.17-0.16c-23.77-21.87-51.82-38.84-82.28-49.61C232.48,9.99,218.8,7.99,204.9,7.99h-21.6
			c-2.41,0-4.35,1.95-4.35,4.35c0,2.41,1.94,4.36,4.35,4.36h21.6c8.35,0,16.55,0.76,23.76,2.14v47.44c0,2.399,1.95,4.35,4.35,4.35
			h87.08c5.26,4.91,10.3,10.07,15.09,15.47c5.24,5.9,8.13,13.65,8.13,21.81c0,18.24-14.82,33.08-33.04,33.08H205.65
			c-1.14-10.53-3.72-31.23-6.9-36.18c-4.32-6.74-8.45-10.67-21.4-16.07l-12.92-5.88l-0.08-7.47c1.71-2.05,4.22-6.07,5.57-12.94
			c0.42-0.2,0.83-0.44,1.22-0.72c3.22-2.27,5.32-6.79,5.5-9.84c0.06-0.89,0.44-8.83-3.58-12.34c0.62-5.28,0.81-8.58,0.6-10.79
			C172.54,17.08,161.25,5,144.32,5c-16.93,0-28.21,12.08-29.34,23.8c-0.2,2.17-0.01,5.48,0.61,10.75
			c-4.03,3.51-3.64,11.45-3.59,12.32c0.19,3.07,2.29,7.59,5.5,9.86c0.4,0.28,0.81,0.52,1.22,0.72c1.36,6.87,3.87,10.89,5.58,12.94
			l-0.08,7.47L111.42,88.69z"/>
		<path fill="#0F1C21" d="M342.39,165.01H14.19c3.28-25.56,7.5-52.45,9.3-55.77c3.11-4.85,5.46-7.85,17.9-13.04l15.44-7.03
			c1.36-0.62,2.23-1.97,2.25-3.46L59.2,73.7c0.01-1.13-0.56-2.28-1.41-3.021c-0.04-0.03-3.58-3.17-4.75-12.41
			c-0.15-1.12-0.77-2.12-1.71-2.73c-0.76-0.5-1.65-0.69-2.55-0.61c-0.77-0.62-1.84-2.58-1.9-3.56c-0.11-1.69,0.2-4.07,0.62-5.22
			c0.79-0.1,1.55-0.44,2.14-1c0.91-0.84,1.36-2.08,1.19-3.31c-0.31-2.35-1.25-9.5-1-12.29c0.78-8.04,8.92-16.36,21.2-16.36
			c12.28,0,20.42,8.32,21.19,16.36c0.26,2.771-0.65,9.69-0.99,12.29c-0.17,1.23,0.28,2.47,1.19,3.31c0.59,0.56,1.34,0.9,2.13,1
			c0.4,1.1,0.74,3.37,0.64,5.23c-0.06,0.96-1.13,2.91-1.9,3.55c-1.72-0.25-3.31,0.75-3.98,2.351L83.16,72.2
			c-0.2,0.47-0.3,0.979-0.29,1.5l0.11,12.01c0.02,2.11,1.73,3.8,3.84,3.8h0.03c2.12-0.02,3.82-1.75,3.81-3.87l-0.11-11.23
			l4.97-12.05c0.69-0.23,1.37-0.58,2.02-1.03c3.09-2.17,5.12-6.52,5.31-9.5c0.05-0.87,0.37-8.61-3.45-11.92l-0.18-0.15
			c0.66-5.479,0.84-8.75,0.64-10.939C98.76,17.36,87.68,5.51,71.03,5.51c-16.64,0-27.73,11.851-28.84,23.33
			c-0.19,2.18,0,5.53,0.65,10.92l-0.21,0.17c-3.91,3.41-3.43,11.58-3.41,11.91c0.17,2.94,2.2,7.29,5.28,9.47
			c0.45,0.32,0.91,0.58,1.38,0.78c1.36,7.12,3.96,11.15,5.64,13.12l-0.09,7.97l-13.11,5.98c-13.03,5.44-16.94,9.15-21.29,15.92
			c-3.56,5.55-9.32,49.85-11,63.3c-0.13,1.09,0.2,2.19,0.93,3.02c0.73,0.82,1.78,1.3,2.88,1.3h332.55c2.12,0,3.84-1.73,3.84-3.85
			S344.51,165.01,342.39,165.01z"/>
	</g>
</g>
<g id="Navbar" display="none">
</g>
</svg>
