<?xml version="1.0" encoding="utf-8"?>
<!-- Generator: Adobe Illustrator 15.0.2, SVG Export Plug-In . SVG Version: 6.00 Build 0)  -->
<!DOCTYPE svg PUBLIC "-//W3C//DTD SVG 1.1//EN" "http://www.w3.org/Graphics/SVG/1.1/DTD/svg11.dtd">
<svg version="1.1" id="Layer_1" xmlns="http://www.w3.org/2000/svg" xmlns:xlink="http://www.w3.org/1999/xlink" x="0px" y="0px"
	 width="354px" height="257px" viewBox="0 0 354 257" enable-background="new 0 0 354 257" xml:space="preserve" preserveAspectRatio="xMidYMid meet">
<g id="Masterseitenebene" display="none">
</g>
<g id="Statusbar" display="none">
	<g display="inline">
		<polyline fill="none" stroke="#000000" stroke-miterlimit="10" points="-141,-442 499,-442 499,-402 -141,-402 -141,-442 		"/>
		<line fill="none" stroke="#000000" stroke-miterlimit="10" x1="-141" y1="-442" x2="499" y2="-402"/>
		<line fill="none" stroke="#000000" stroke-miterlimit="10" x1="499" y1="-442" x2="-141" y2="-402"/>
	</g>
	<rect x="-141" y="-442" display="inline" width="225" height="40"/>
	<rect x="130" y="-442" display="inline" width="90" height="40"/>
	<circle display="inline" fill="#FFFFFF" cx="-122.5" cy="-421.5" r="5.5"/>
	<circle display="inline" fill="#FFFFFF" cx="-94.5" cy="-421.5" r="5.5"/>
	<circle display="inline" fill="#FFFFFF" cx="-108.5" cy="-421.5" r="5.5"/>
	<circle display="inline" fill="#FFFFFF" cx="-80.5" cy="-421.5" r="5.5"/>
	<circle display="inline" fill="#FFFFFF" cx="-66.5" cy="-421.5" r="5.5"/>
	<g display="inline">
		<text transform="matrix(1 0 0 1 -57 -436)" fill="#FFFFFF" font-family="'MyriadPro-Regular'" font-size="24">PrettyGood</text>
	</g>
	<g display="inline">
		<text transform="matrix(1 0 0 1 147 -436)" fill="#FFFFFF" font-family="'MyriadPro-Regular'" font-size="24">16:20</text>
	</g>
</g>
<g id="Content_1_">
	<g>
		<path fill="#FFFFFF" d="M91.72,201.04c-2.27,0-5.02,0.819-7.15,1.79v-11.58c0-1.99-1.59-3.57-3.51-3.57
			c-1.99,0-3.58,1.58-3.58,3.57v42.5c0,2,1.59,3.58,3.58,3.58c1.92,0,3.51-1.58,3.51-3.58v-23.689c1.92-1.58,4.26-2.48,6.66-2.48
			c4.27,0,6.74,2.48,6.74,6.68v19.49c0,2,1.52,3.58,3.51,3.58c2,0,3.58-1.58,3.58-3.58v-18.939c0-3.99-1.31-7.57-3.79-10.051
			C98.73,202.21,95.77,201.04,91.72,201.04z"/>
		<path fill="#FFFFFF" d="M63.4,229.891c-2.21,0.549-4.75,0.899-7.09,0.899c-5.98,0-6.33-3.44-6.33-4.681
			c0-1.17,0.35-4.409,6.33-4.409h7.09V229.891z M58.58,201.04c-4.95,0-8.18,0.62-11.89,2.75c-1.17,0.69-1.72,1.93-1.72,3.17
			c0,1.72,1.51,3.101,3.37,3.101c0.61,0,1.37-0.281,1.92-0.621c2.41-1.439,4.19-1.859,7.43-1.859c3.57,0,5.71,2.27,5.71,5.16v2.41
			h-7.09c-4.19,0-7.5,1.039-9.83,3.039c-2.34,1.92-3.58,4.541-3.58,7.92c0,3.371,1.24,6.19,3.58,8.19c2.33,2,5.64,3.03,9.83,3.03
			c3.85,0,7.77-0.62,11.14-1.79c1.79-0.62,3.03-2.28,3.03-4.2v-18.6C70.48,206.609,66.28,201.04,58.58,201.04z"/>
		<path fill="#FFFFFF" d="M237.359,62.92V21.98c0.75,0.23,1.511,0.46,2.221,0.7c25.72,9.101,49.66,22.8,70.609,40.24H237.359z
			 M111.42,89.69c-13.07,5.45-17.2,9.38-21.52,16.12c-3.66,5.68-6.51,32.14-7.3,40.11c-0.24,2.391,1.5,4.52,3.89,4.76
			c0.15,0.01,0.29,0.021,0.44,0.021c2.21,0,4.1-1.681,4.32-3.92c1.51-15.21,4.22-33.4,5.97-36.271c3.05-4.76,5.37-7.7,17.67-12.84
			l15.45-7.04c1.53-0.7,2.53-2.22,2.54-3.91l0.13-12.01c0.01-1.27-0.64-2.58-1.59-3.42c-0.04-0.03-3.43-3.09-4.58-12.09
			c-0.17-1.26-0.87-2.39-1.93-3.09c-0.79-0.521-1.74-0.76-2.65-0.71c-0.65-0.66-1.52-2.27-1.57-3.07c-0.1-1.47,0.14-3.57,0.49-4.72
			c0.78-0.16,1.51-0.53,2.11-1.08c1.03-0.96,1.53-2.36,1.35-3.76c-0.31-2.33-1.25-9.44-1.01-12.16c0.76-7.82,8.71-15.9,20.69-15.9
			c11.99,0,19.94,8.08,20.69,15.86c0.24,2.76-0.69,9.87-1,12.2c-0.19,1.4,0.32,2.8,1.35,3.76c0.59,0.55,1.32,0.92,2.1,1.08
			c0.35,1.16,0.59,3.26,0.5,4.74c-0.05,0.78-0.92,2.39-1.58,3.05c-0.91-0.04-1.85,0.19-2.64,0.71c-1.06,0.7-1.77,1.83-1.93,3.09
			c-1.14,8.92-4.49,12.01-4.47,12.01c-1.09,0.83-1.72,2.13-1.7,3.5l0.12,12.01c0.02,1.69,1.01,3.21,2.55,3.91l15.57,7.09
			c12.181,5.09,14.5,8.03,17.55,12.79c1.75,2.87,4.461,21.06,5.971,36.271c0.22,2.22,2.09,3.92,4.32,3.92H310.27
			c23.011,0,41.73-18.74,41.73-41.79c0-10.3-3.67-20.11-10.32-27.6c-5.31-5.98-10.92-11.67-16.779-17.07l-0.17-0.16
			c-23.771-21.87-51.82-38.84-82.28-49.61c-9.97-3.48-23.65-5.48-37.55-5.48H183.3c-2.409,0-4.35,1.95-4.35,4.35
			c0,2.41,1.94,4.36,4.35,4.36H204.9c8.35,0,16.55,0.76,23.76,2.14v47.44c0,2.399,1.949,4.35,4.35,4.35h87.08
			c5.26,4.91,10.301,10.07,15.09,15.47c5.24,5.9,8.131,13.65,8.131,21.81c0,18.24-14.82,33.08-33.041,33.08H205.65
			c-1.141-10.53-3.721-31.23-6.9-36.18c-4.32-6.74-8.45-10.67-21.4-16.07l-12.92-5.88l-0.08-7.47c1.71-2.05,4.22-6.07,5.57-12.94
			c0.42-0.2,0.83-0.44,1.22-0.72c3.22-2.27,5.32-6.79,5.5-9.84c0.06-0.89,0.44-8.83-3.58-12.34c0.62-5.28,0.81-8.58,0.6-10.79
			C172.54,18.08,161.25,6,144.32,6c-16.93,0-28.21,12.08-29.34,23.8c-0.2,2.17-0.01,5.48,0.61,10.75
			c-4.03,3.51-3.64,11.45-3.59,12.32c0.19,3.07,2.29,7.59,5.5,9.86c0.4,0.28,0.81,0.52,1.22,0.72c1.36,6.87,3.87,10.89,5.58,12.94
			l-0.08,7.47L111.42,89.69z"/>
		<path fill="#FFFFFF" d="M24.34,229.689h-8.87V215.08h7.77c4.75,0,8.19,3.24,8.19,7.24C31.43,227,29.02,229.689,24.34,229.689z
			 M15.47,195.32h8.39c4.19,0,6.26,2.34,6.26,6.41c0,3.58-3.09,6.399-7.29,6.399h-7.36V195.32z M32.8,211.3
			c3.1-2.55,4.61-5.93,4.61-9.569c0-7.99-5.43-13.371-13.55-13.371H12.65c-2.47,0-4.47,2.011-4.47,4.41v39.461
			c0,2.42,2,4.41,4.47,4.41h11.69c8.6,0,14.37-5.721,14.37-14.32C38.71,218.189,36.85,214.05,32.8,211.3z"/>
		<path fill="#FFFFFF" d="M125.81,201.04c-3.71,0-7.36,0.62-10.72,1.79c-1.86,0.62-3.03,2.27-3.03,4.199v26.721
			c0,2,1.58,3.58,3.58,3.58c1.92,0,3.5-1.58,3.5-3.58v-25.27c2.14-0.551,4.4-0.9,6.67-0.9c4.27,0,6.74,2.48,6.74,6.68v19.49
			c0,2,1.51,3.58,3.51,3.58s3.57-1.58,3.57-3.58v-18.939c0-3.99-1.37-7.44-3.85-9.92C133.31,202.35,129.87,201.04,125.81,201.04z"/>
		<path fill="#FFFFFF" d="M337,228.311c-1.85,1.58-4.26,2.479-6.73,2.479c-4.199,0-6.68-2.41-6.68-6.681v-9.85
			c0-4.199,2.48-6.68,6.68-6.68c2.33,0,4.601,0.35,6.73,0.9V228.311z M341.061,202.83c-3.44-1.17-7.011-1.79-10.791-1.79
			c-4,0-7.43,1.31-9.97,3.851c-2.479,2.479-3.79,5.93-3.79,9.92v8.68c0,4.06,1.311,7.5,3.79,9.99c2.54,2.539,5.97,3.85,9.97,3.85
			c2.33,0,4.67-0.76,6.73-1.79v2.69c0,4.189-2.471,7.229-6.73,7.229c-2.479,0-4.819-0.69-7.09-1.649
			c-0.479-0.211-1.1-0.42-1.58-0.42c-1.92,0-3.439,1.52-3.439,3.31c0,1.37,0.83,2.54,2.14,3.159c3.16,1.451,6.521,2.141,9.97,2.141
			c4.051,0,7.49-1.311,9.971-3.859c2.47-2.48,3.84-5.92,3.84-9.91v-31.2C344.08,205.1,342.85,203.45,341.061,202.83z"/>
		<path fill="#FFFFFF" d="M271.9,187.68c-2.2,0-3.99,1.79-3.99,3.99c0,2.21,1.79,3.99,3.99,3.99c2.199,0,3.99-1.78,3.99-3.99
			C275.891,189.471,274.1,187.68,271.9,187.68z"/>
		<path fill="#FFFFFF" d="M296.92,201.04c-3.71,0-7.359,0.62-10.72,1.79c-1.86,0.62-3.03,2.27-3.03,4.199v26.721
			c0,2,1.58,3.58,3.58,3.58c1.92,0,3.51-1.58,3.51-3.58v-25.27c2.131-0.551,4.4-0.9,6.66-0.9c4.27,0,6.74,2.48,6.74,6.68v19.49
			c0,2,1.52,3.58,3.51,3.58c2,0,3.57-1.58,3.57-3.58v-18.939c0-3.99-1.37-7.44-3.85-9.92C304.42,202.35,300.98,201.04,296.92,201.04
			z"/>
		<path fill="#FFFFFF" d="M271.9,201.04c-1.93,0-3.57,1.58-3.57,3.58v29.13c0,2,1.641,3.58,3.57,3.58c2,0,3.51-1.58,3.51-3.58
			v-29.13C275.41,202.62,273.9,201.04,271.9,201.04z"/>
		<path fill="#FFFFFF" d="M342.391,166.01H14.19c3.28-25.56,7.5-52.45,9.3-55.77c3.11-4.85,5.46-7.85,17.9-13.04l15.44-7.03
			c1.36-0.62,2.23-1.97,2.25-3.46L59.2,74.7c0.01-1.13-0.56-2.28-1.41-3.021c-0.04-0.03-3.58-3.17-4.75-12.41
			c-0.15-1.12-0.77-2.12-1.71-2.73c-0.76-0.5-1.65-0.69-2.55-0.61c-0.77-0.62-1.84-2.58-1.9-3.56c-0.11-1.69,0.2-4.07,0.62-5.22
			c0.79-0.1,1.55-0.44,2.14-1c0.91-0.84,1.36-2.08,1.19-3.31c-0.31-2.35-1.25-9.5-1-12.29c0.78-8.04,8.92-16.36,21.2-16.36
			c12.28,0,20.42,8.32,21.19,16.36c0.26,2.771-0.65,9.69-0.99,12.29c-0.17,1.23,0.28,2.47,1.19,3.31c0.59,0.56,1.34,0.9,2.13,1
			c0.4,1.1,0.74,3.37,0.64,5.23c-0.06,0.96-1.13,2.91-1.9,3.55c-1.72-0.25-3.31,0.75-3.98,2.351L83.16,73.2
			c-0.2,0.47-0.3,0.979-0.29,1.5l0.11,12.01c0.02,2.11,1.73,3.8,3.84,3.8h0.03c2.12-0.02,3.82-1.75,3.81-3.87l-0.11-11.23
			l4.97-12.05c0.69-0.23,1.37-0.58,2.02-1.03c3.09-2.17,5.12-6.52,5.31-9.5c0.05-0.87,0.37-8.61-3.45-11.92l-0.18-0.15
			c0.66-5.479,0.84-8.75,0.64-10.939C98.76,18.36,87.68,6.51,71.03,6.51c-16.64,0-27.73,11.851-28.84,23.33
			c-0.19,2.18,0,5.53,0.65,10.92l-0.21,0.17c-3.91,3.41-3.43,11.58-3.41,11.91c0.17,2.94,2.2,7.29,5.28,9.47
			c0.45,0.32,0.91,0.58,1.38,0.78c1.36,7.12,3.96,11.15,5.64,13.12l-0.09,7.97l-13.11,5.98c-13.03,5.44-16.94,9.15-21.29,15.92
			c-3.56,5.55-9.32,49.85-11,63.3c-0.13,1.091,0.2,2.19,0.93,3.021c0.73,0.82,1.78,1.3,2.88,1.3h332.551
			c2.119,0,3.84-1.729,3.84-3.851C346.23,167.73,344.51,166.01,342.391,166.01z"/>
		<path fill="#FFFFFF" d="M194.08,201.04c-2.27,0-5.02,0.819-7.15,1.79v-11.58c0-1.99-1.59-3.57-3.51-3.57
			c-1.99,0-3.58,1.58-3.58,3.57v42.5c0,2,1.59,3.58,3.58,3.58c1.92,0,3.51-1.58,3.51-3.58v-23.689c1.93-1.58,4.26-2.48,6.67-2.48
			c4.26,0,6.74,2.48,6.74,6.68v19.49c0,2,1.51,3.58,3.5,3.58c2,0,3.58-1.58,3.58-3.58v-18.939c0-3.99-1.311-7.57-3.779-10.051
			C201.09,202.21,198.141,201.04,194.08,201.04z"/>
		<path fill="#FFFFFF" d="M259.8,201.59c-1.71-0.35-3.44-0.55-5.159-0.55c-5.841,0-10.24,4.399-10.24,10.26v22.45
			c0,2,1.58,3.58,3.58,3.58c1.92,0,3.5-1.58,3.5-3.58v-23c0-1.721,1.439-3.17,3.16-3.17c1.109,0,2.34,0.27,3.449,0.55
			c0.54,0.14,0.75,0.14,1.16,0.14c2,0,3.37-1.449,3.37-3.31C262.62,203.311,261.45,201.93,259.8,201.59z"/>
		<path fill="#FFFFFF" d="M164.52,209.85l-7.84-3.439c-2.75-1.24-4.33-2.689-4.33-5.92c0-4.69,4.47-6.061,7.84-6.061
			c5.57,0,7.98,1.44,9.62,2.061c0.49,0.21,0.9,0.279,1.31,0.279c1.93,0,3.44-1.52,3.44-3.31c0-1.92-1.24-2.89-2.68-3.51
			c-3.58-1.591-7.57-2.271-11.35-2.271c-7.83,0-15.54,4.961-15.54,13.15c0,5.37,2.75,9.57,8.11,11.91l8.26,3.66
			c3.09,1.369,5.98,3.779,5.98,7.229c0,4.54-2.96,6.95-7.91,6.95c-3.23,0-6.11-0.891-8.94-2.13c-0.62-0.28-1.3-0.479-2.19-0.479
			c-2.07,0-3.31,1.579-3.31,3.51c0,1.51,0.83,2.68,2.14,3.24c3.57,1.51,8.24,2.609,12.3,2.609c9.28,0,15.27-6.27,15.27-14.6
			C174.7,215.359,169.74,212.12,164.52,209.85z"/>
		<path fill="#FFFFFF" d="M231.68,229.891c-2.199,0.549-4.74,0.899-7.08,0.899c-5.979,0-6.33-3.44-6.33-4.681
			c0-1.17,0.351-4.409,6.33-4.409h7.08V229.891z M226.87,201.04c-4.95,0-8.181,0.62-11.89,2.75c-1.17,0.69-1.721,1.93-1.721,3.17
			c0,1.72,1.51,3.101,3.36,3.101c0.62,0,1.38-0.281,1.93-0.621c2.41-1.439,4.19-1.859,7.431-1.859c3.569,0,5.699,2.27,5.699,5.16
			v2.41h-7.08c-4.189,0-7.5,1.039-9.83,3.039c-2.34,1.92-3.58,4.541-3.58,7.92c0,3.371,1.24,6.19,3.58,8.19
			c2.33,2,5.641,3.03,9.83,3.03c3.851,0,7.771-0.62,11.141-1.79c1.789-0.62,3.029-2.28,3.029-4.2v-18.6
			C238.77,206.609,234.57,201.04,226.87,201.04z"/>
	</g>
</g>
<g id="Content">
	<g>
		<path fill="#0F1C21" d="M91.72,200.04c-2.27,0-5.02,0.819-7.15,1.79v-11.58c0-1.99-1.59-3.57-3.51-3.57
			c-1.99,0-3.58,1.58-3.58,3.57v42.5c0,2,1.59,3.58,3.58,3.58c1.92,0,3.51-1.58,3.51-3.58v-23.689c1.92-1.58,4.26-2.48,6.66-2.48
			c4.27,0,6.74,2.48,6.74,6.68v19.49c0,2,1.52,3.58,3.51,3.58c2,0,3.58-1.58,3.58-3.58v-18.939c0-3.99-1.31-7.57-3.79-10.051
			C98.73,201.21,95.77,200.04,91.72,200.04z"/>
		<path fill="#0F1C21" d="M63.4,228.891c-2.21,0.549-4.75,0.899-7.09,0.899c-5.98,0-6.33-3.44-6.33-4.681
			c0-1.17,0.35-4.409,6.33-4.409h7.09V228.891z M58.58,200.04c-4.95,0-8.18,0.62-11.89,2.75c-1.17,0.69-1.72,1.93-1.72,3.17
			c0,1.72,1.51,3.101,3.37,3.101c0.61,0,1.37-0.281,1.92-0.621c2.41-1.439,4.19-1.859,7.43-1.859c3.57,0,5.71,2.27,5.71,5.16v2.41
			h-7.09c-4.19,0-7.5,1.039-9.83,3.039c-2.34,1.92-3.58,4.541-3.58,7.92c0,3.371,1.24,6.19,3.58,8.19c2.33,2,5.64,3.03,9.83,3.03
			c3.85,0,7.77-0.62,11.14-1.79c1.79-0.62,3.03-2.28,3.03-4.2v-18.6C70.48,205.609,66.28,200.04,58.58,200.04z"/>
		<path fill="#0F1C21" d="M237.359,61.92V20.98c0.75,0.23,1.511,0.46,2.221,0.7c25.72,9.101,49.66,22.8,70.609,40.24H237.359z
			 M111.42,88.69c-13.07,5.45-17.2,9.38-21.52,16.12c-3.66,5.68-6.51,32.14-7.3,40.11c-0.24,2.391,1.5,4.52,3.89,4.76
			c0.15,0.01,0.29,0.021,0.44,0.021c2.21,0,4.1-1.681,4.32-3.92c1.51-15.21,4.22-33.4,5.97-36.271c3.05-4.76,5.37-7.7,17.67-12.84
			l15.45-7.04c1.53-0.7,2.53-2.22,2.54-3.91l0.13-12.01c0.01-1.27-0.64-2.58-1.59-3.42c-0.04-0.03-3.43-3.09-4.58-12.09
			c-0.17-1.26-0.87-2.39-1.93-3.09c-0.79-0.521-1.74-0.76-2.65-0.71c-0.65-0.66-1.52-2.27-1.57-3.07c-0.1-1.47,0.14-3.57,0.49-4.72
			c0.78-0.16,1.51-0.53,2.11-1.08c1.03-0.96,1.53-2.36,1.35-3.76c-0.31-2.33-1.25-9.44-1.01-12.16c0.76-7.82,8.71-15.9,20.69-15.9
			c11.99,0,19.94,8.08,20.69,15.86c0.24,2.76-0.69,9.87-1,12.2c-0.19,1.4,0.32,2.8,1.35,3.76c0.59,0.55,1.32,0.92,2.1,1.08
			c0.35,1.16,0.59,3.26,0.5,4.74c-0.05,0.78-0.92,2.39-1.58,3.05c-0.91-0.04-1.85,0.19-2.64,0.71c-1.06,0.7-1.77,1.83-1.93,3.09
			c-1.14,8.92-4.49,12.01-4.47,12.01c-1.09,0.83-1.72,2.13-1.7,3.5l0.12,12.01c0.02,1.69,1.01,3.21,2.55,3.91l15.57,7.09
			c12.181,5.09,14.5,8.03,17.55,12.79c1.75,2.87,4.461,21.06,5.971,36.271c0.22,2.22,2.09,3.92,4.32,3.92H310.27
			c23.011,0,41.73-18.74,41.73-41.79c0-10.3-3.67-20.11-10.32-27.6c-5.31-5.98-10.92-11.67-16.779-17.07l-0.17-0.16
			c-23.771-21.87-51.82-38.84-82.28-49.61c-9.97-3.48-23.65-5.48-37.55-5.48H183.3c-2.409,0-4.35,1.95-4.35,4.35
			c0,2.41,1.94,4.36,4.35,4.36H204.9c8.35,0,16.55,0.76,23.76,2.14v47.44c0,2.399,1.949,4.35,4.35,4.35h87.08
			c5.26,4.91,10.301,10.07,15.09,15.47c5.24,5.9,8.131,13.65,8.131,21.81c0,18.24-14.82,33.08-33.041,33.08H205.65
			c-1.141-10.53-3.721-31.23-6.9-36.18c-4.32-6.74-8.45-10.67-21.4-16.07l-12.92-5.88l-0.08-7.47c1.71-2.05,4.22-6.07,5.57-12.94
			c0.42-0.2,0.83-0.44,1.22-0.72c3.22-2.27,5.32-6.79,5.5-9.84c0.06-0.89,0.44-8.83-3.58-12.34c0.62-5.28,0.81-8.58,0.6-10.79
			C172.54,17.08,161.25,5,144.32,5c-16.93,0-28.21,12.08-29.34,23.8c-0.2,2.17-0.01,5.48,0.61,10.75
			c-4.03,3.51-3.64,11.45-3.59,12.32c0.19,3.07,2.29,7.59,5.5,9.86c0.4,0.28,0.81,0.52,1.22,0.72c1.36,6.87,3.87,10.89,5.58,12.94
			l-0.08,7.47L111.42,88.69z"/>
		<path fill="#0F1C21" d="M24.34,228.689h-8.87V214.08h7.77c4.75,0,8.19,3.24,8.19,7.24C31.43,226,29.02,228.689,24.34,228.689z
			 M15.47,194.32h8.39c4.19,0,6.26,2.34,6.26,6.41c0,3.58-3.09,6.399-7.29,6.399h-7.36V194.32z M32.8,210.3
			c3.1-2.55,4.61-5.93,4.61-9.569c0-7.99-5.43-13.371-13.55-13.371H12.65c-2.47,0-4.47,2.011-4.47,4.41v39.461
			c0,2.42,2,4.41,4.47,4.41h11.69c8.6,0,14.37-5.721,14.37-14.32C38.71,217.189,36.85,213.05,32.8,210.3z"/>
		<path fill="#0F1C21" d="M125.81,200.04c-3.71,0-7.36,0.62-10.72,1.79c-1.86,0.62-3.03,2.27-3.03,4.199v26.721
			c0,2,1.58,3.58,3.58,3.58c1.92,0,3.5-1.58,3.5-3.58v-25.27c2.14-0.551,4.4-0.9,6.67-0.9c4.27,0,6.74,2.48,6.74,6.68v19.49
			c0,2,1.51,3.58,3.51,3.58s3.57-1.58,3.57-3.58v-18.939c0-3.99-1.37-7.44-3.85-9.92C133.31,201.35,129.87,200.04,125.81,200.04z"/>
		<path fill="#0F1C21" d="M337,227.311c-1.85,1.58-4.26,2.479-6.73,2.479c-4.199,0-6.68-2.41-6.68-6.681v-9.85
			c0-4.199,2.48-6.68,6.68-6.68c2.33,0,4.601,0.35,6.73,0.9V227.311z M341.061,201.83c-3.44-1.17-7.011-1.79-10.791-1.79
			c-4,0-7.43,1.31-9.97,3.851c-2.479,2.479-3.79,5.93-3.79,9.92v8.68c0,4.06,1.311,7.5,3.79,9.99c2.54,2.539,5.97,3.85,9.97,3.85
			c2.33,0,4.67-0.76,6.73-1.79v2.69c0,4.189-2.471,7.229-6.73,7.229c-2.479,0-4.819-0.69-7.09-1.649
			c-0.479-0.211-1.1-0.42-1.58-0.42c-1.92,0-3.439,1.52-3.439,3.31c0,1.37,0.83,2.54,2.14,3.159c3.16,1.451,6.521,2.141,9.97,2.141
			c4.051,0,7.49-1.311,9.971-3.859c2.47-2.48,3.84-5.92,3.84-9.91v-31.2C344.08,204.1,342.85,202.45,341.061,201.83z"/>
		<path fill="#0F1C21" d="M271.9,186.68c-2.2,0-3.99,1.79-3.99,3.99c0,2.21,1.79,3.99,3.99,3.99c2.199,0,3.99-1.78,3.99-3.99
			C275.891,188.471,274.1,186.68,271.9,186.68z"/>
		<path fill="#0F1C21" d="M296.92,200.04c-3.71,0-7.359,0.62-10.72,1.79c-1.86,0.62-3.03,2.27-3.03,4.199v26.721
			c0,2,1.58,3.58,3.58,3.58c1.92,0,3.51-1.58,3.51-3.58v-25.27c2.131-0.551,4.4-0.9,6.66-0.9c4.27,0,6.74,2.48,6.74,6.68v19.49
			c0,2,1.52,3.58,3.51,3.58c2,0,3.57-1.58,3.57-3.58v-18.939c0-3.99-1.37-7.44-3.85-9.92C304.42,201.35,300.98,200.04,296.92,200.04
			z"/>
		<path fill="#0F1C21" d="M271.9,200.04c-1.93,0-3.57,1.58-3.57,3.58v29.13c0,2,1.641,3.58,3.57,3.58c2,0,3.51-1.58,3.51-3.58
			v-29.13C275.41,201.62,273.9,200.04,271.9,200.04z"/>
		<path fill="#0F1C21" d="M342.391,165.01H14.19c3.28-25.56,7.5-52.45,9.3-55.77c3.11-4.85,5.46-7.85,17.9-13.04l15.44-7.03
			c1.36-0.62,2.23-1.97,2.25-3.46L59.2,73.7c0.01-1.13-0.56-2.28-1.41-3.021c-0.04-0.03-3.58-3.17-4.75-12.41
			c-0.15-1.12-0.77-2.12-1.71-2.73c-0.76-0.5-1.65-0.69-2.55-0.61c-0.77-0.62-1.84-2.58-1.9-3.56c-0.11-1.69,0.2-4.07,0.62-5.22
			c0.79-0.1,1.55-0.44,2.14-1c0.91-0.84,1.36-2.08,1.19-3.31c-0.31-2.35-1.25-9.5-1-12.29c0.78-8.04,8.92-16.36,21.2-16.36
			c12.28,0,20.42,8.32,21.19,16.36c0.26,2.771-0.65,9.69-0.99,12.29c-0.17,1.23,0.28,2.47,1.19,3.31c0.59,0.56,1.34,0.9,2.13,1
			c0.4,1.1,0.74,3.37,0.64,5.23c-0.06,0.96-1.13,2.91-1.9,3.55c-1.72-0.25-3.31,0.75-3.98,2.351L83.16,72.2
			c-0.2,0.47-0.3,0.979-0.29,1.5l0.11,12.01c0.02,2.11,1.73,3.8,3.84,3.8h0.03c2.12-0.02,3.82-1.75,3.81-3.87l-0.11-11.23
			l4.97-12.05c0.69-0.23,1.37-0.58,2.02-1.03c3.09-2.17,5.12-6.52,5.31-9.5c0.05-0.87,0.37-8.61-3.45-11.92l-0.18-0.15
			c0.66-5.479,0.84-8.75,0.64-10.939C98.76,17.36,87.68,5.51,71.03,5.51c-16.64,0-27.73,11.851-28.84,23.33
			c-0.19,2.18,0,5.53,0.65,10.92l-0.21,0.17c-3.91,3.41-3.43,11.58-3.41,11.91c0.17,2.94,2.2,7.29,5.28,9.47
			c0.45,0.32,0.91,0.58,1.38,0.78c1.36,7.12,3.96,11.15,5.64,13.12l-0.09,7.97l-13.11,5.98c-13.03,5.44-16.94,9.15-21.29,15.92
			c-3.56,5.55-9.32,49.85-11,63.3c-0.13,1.091,0.2,2.19,0.93,3.021c0.73,0.82,1.78,1.3,2.88,1.3h332.551
			c2.119,0,3.84-1.729,3.84-3.851C346.23,166.73,344.51,165.01,342.391,165.01z"/>
		<path fill="#0F1C21" d="M194.08,200.04c-2.27,0-5.02,0.819-7.15,1.79v-11.58c0-1.99-1.59-3.57-3.51-3.57
			c-1.99,0-3.58,1.58-3.58,3.57v42.5c0,2,1.59,3.58,3.58,3.58c1.92,0,3.51-1.58,3.51-3.58v-23.689c1.93-1.58,4.26-2.48,6.67-2.48
			c4.26,0,6.74,2.48,6.74,6.68v19.49c0,2,1.51,3.58,3.5,3.58c2,0,3.58-1.58,3.58-3.58v-18.939c0-3.99-1.311-7.57-3.779-10.051
			C201.09,201.21,198.141,200.04,194.08,200.04z"/>
		<path fill="#0F1C21" d="M259.8,200.59c-1.71-0.35-3.44-0.55-5.159-0.55c-5.841,0-10.24,4.399-10.24,10.26v22.45
			c0,2,1.58,3.58,3.58,3.58c1.92,0,3.5-1.58,3.5-3.58v-23c0-1.721,1.439-3.17,3.16-3.17c1.109,0,2.34,0.27,3.449,0.55
			c0.54,0.14,0.75,0.14,1.16,0.14c2,0,3.37-1.449,3.37-3.31C262.62,202.311,261.45,200.93,259.8,200.59z"/>
		<path fill="#0F1C21" d="M164.52,208.85l-7.84-3.439c-2.75-1.24-4.33-2.689-4.33-5.92c0-4.69,4.47-6.061,7.84-6.061
			c5.57,0,7.98,1.44,9.62,2.061c0.49,0.21,0.9,0.279,1.31,0.279c1.93,0,3.44-1.52,3.44-3.31c0-1.92-1.24-2.89-2.68-3.51
			c-3.58-1.591-7.57-2.271-11.35-2.271c-7.83,0-15.54,4.961-15.54,13.15c0,5.37,2.75,9.57,8.11,11.91l8.26,3.66
			c3.09,1.369,5.98,3.779,5.98,7.229c0,4.54-2.96,6.95-7.91,6.95c-3.23,0-6.11-0.891-8.94-2.13c-0.62-0.28-1.3-0.479-2.19-0.479
			c-2.07,0-3.31,1.579-3.31,3.51c0,1.51,0.83,2.68,2.14,3.24c3.57,1.51,8.24,2.609,12.3,2.609c9.28,0,15.27-6.27,15.27-14.6
			C174.7,214.359,169.74,211.12,164.52,208.85z"/>
		<path fill="#0F1C21" d="M231.68,228.891c-2.199,0.549-4.74,0.899-7.08,0.899c-5.979,0-6.33-3.44-6.33-4.681
			c0-1.17,0.351-4.409,6.33-4.409h7.08V228.891z M226.87,200.04c-4.95,0-8.181,0.62-11.89,2.75c-1.17,0.69-1.721,1.93-1.721,3.17
			c0,1.72,1.51,3.101,3.36,3.101c0.62,0,1.38-0.281,1.93-0.621c2.41-1.439,4.19-1.859,7.431-1.859c3.569,0,5.699,2.27,5.699,5.16
			v2.41h-7.08c-4.189,0-7.5,1.039-9.83,3.039c-2.34,1.92-3.58,4.541-3.58,7.92c0,3.371,1.24,6.19,3.58,8.19
			c2.33,2,5.641,3.03,9.83,3.03c3.851,0,7.771-0.62,11.141-1.79c1.789-0.62,3.029-2.28,3.029-4.2v-18.6
			C238.77,205.609,234.57,200.04,226.87,200.04z"/>
	</g>
</g>
<g id="Navbar" display="none">
</g>
</svg>
