<?xml version="1.0" encoding="utf-8"?>
<!-- Generator: Adobe Illustrator 15.0.2, SVG Export Plug-In . SVG Version: 6.00 Build 0)  -->
<!DOCTYPE svg PUBLIC "-//W3C//DTD SVG 1.1//EN" "http://www.w3.org/Graphics/SVG/1.1/DTD/svg11.dtd">
<svg version="1.1" xmlns="http://www.w3.org/2000/svg" xmlns:xlink="http://www.w3.org/1999/xlink" x="0px" y="0px"
	 width="61.333px" height="61.5px" viewBox="0 0 61.333 61.5" enable-background="new 0 0 61.333 61.5" xml:space="preserve">
<g id="Masterseitenebene" display="none">
</g>
<g id="Statusbar">
</g>
<g id="Content" display="none">
</g>
<g id="Navbar">
	<path fill-rule="evenodd" clip-rule="evenodd" fill="#4D4D4D" d="M51.626,46.563c-1.94-1.59-5.74-2.78-9.53-4.36
		c-4.53-1.89-5.6-2.54-5.6-2.54l-0.04-4.34c0,0,1.69-1.31,2.22-5.39c1.06,0.31,2.17-1.58,2.23-2.58c0.06-0.95-0.14-3.62-1.44-3.35
		c0.26-2,0.45-3.8,0.36-4.75c-0.33-3.5-3.77-7.17-9.05-7.17c-5.27,0-8.71,3.67-9.05,7.17c-0.09,0.95,0.1,2.75,0.36,4.75
		c-1.29-0.27-1.49,2.4-1.43,3.35c0.06,1,1.17,2.89,2.23,2.58c0.52,4.08,2.22,5.39,2.22,5.39l-0.05,4.34c0,0-1.07,0.65-5.59,2.54
		c-3.89,1.62-7.79,2.82-9.68,4.47c-3.36-4.41-5.37-9.89-5.37-15.84c0-14.47,11.78-26.25,26.25-26.25s26.25,11.78,26.25,26.25
		C56.917,36.733,54.937,42.173,51.626,46.563z M30.667,0.833c-16.57,0-30,13.43-30,30c0,7.68,2.91,14.67,7.66,19.98
		c5.49,6.13,13.46,10.02,22.34,10.02c8.99,0,17.04-3.98,22.54-10.25c4.63-5.28,7.46-12.18,7.46-19.75
		C60.667,14.264,47.236,0.833,30.667,0.833z"/>
</g>
</svg>
